<?xml version="1.0" standalone="no"?>
<!DOCTYPE svg PUBLIC "-//W3C//DTD SVG 20010904//EN"
 "http://www.w3.org/TR/2001/REC-SVG-20010904/DTD/svg10.dtd">
<svg version="1.0" xmlns="http://www.w3.org/2000/svg"
 width="600.000000pt" height="600.000000pt" viewBox="0 0 600.000000 600.000000"
 preserveAspectRatio="xMidYMid meet">
<metadata>
Created by potrace 1.16, written by Peter Selinger 2001-2019
</metadata>
<g transform="translate(0.000000,600.000000) scale(0.100000,-0.100000)"
fill="#000000" stroke="none">
<path d="M2000 4679 c-68 -11 -177 -38 -199 -49 -9 -4 -56 -27 -106 -50 -167
-80 -308 -202 -414 -357 -68 -101 -91 -150 -85 -182 4 -17 1 -32 -6 -36 -9 -5
-10 -1 -6 16 6 22 6 22 -7 7 -7 -9 -20 -43 -27 -75 -7 -32 -18 -63 -23 -70 -5
-7 -7 -18 -4 -25 6 -15 27 34 27 63 0 10 5 19 10 19 7 0 9 -14 5 -37 -5 -33
-4 -35 5 -14 6 14 8 37 5 53 -5 21 0 34 20 55 l27 28 -6 -57 c-5 -48 -4 -58 9
-58 13 0 22 38 16 73 0 4 8 7 19 7 23 0 28 -38 8 -58 -9 -9 -9 -12 0 -12 9 0
12 -43 12 -164 0 -172 5 -191 42 -158 10 8 24 12 33 8 15 -5 14 -9 -4 -35 -12
-16 -18 -36 -15 -45 4 -10 1 -16 -8 -16 -7 0 -21 -9 -30 -20 -16 -18 -16 -20
-1 -29 11 -6 28 -4 50 7 27 13 33 21 33 49 0 34 21 53 58 53 28 0 44 -24 47
-72 2 -24 6 -69 10 -101 7 -48 5 -61 -10 -77 -24 -27 -61 -25 -80 3 -8 13 -18
51 -21 85 -4 34 -11 59 -16 56 -5 -3 -6 -15 -3 -27 5 -16 4 -18 -3 -8 -7 9
-12 10 -16 2 -4 -6 -12 -9 -17 -6 -5 4 -9 -14 -9 -40 0 -28 4 -44 10 -40 6 3
10 17 10 31 0 15 6 24 15 24 18 0 20 -31 4 -47 -7 -7 -8 -19 -4 -30 4 -10 7
-60 5 -110 l-2 -93 30 0 c16 0 35 -6 41 -14 14 -16 12 -136 -2 -136 -5 0 -7
15 -4 35 4 24 1 40 -9 50 -9 8 -12 20 -8 26 5 8 3 9 -6 4 -7 -4 -15 -2 -20 4
-4 7 -15 12 -26 11 -47 -1 -64 -5 -64 -15 0 -5 -5 -3 -10 5 -5 8 -10 11 -10 5
0 -22 17 -33 52 -33 52 0 60 -8 56 -55 -2 -35 0 -42 17 -45 25 -5 45 -21 45
-36 0 -6 -5 -3 -11 7 -7 12 -20 17 -37 15 -15 -2 -28 2 -28 7 -4 28 -17 52
-35 63 -11 7 -19 8 -19 2 0 -5 4 -10 9 -10 5 0 17 -18 27 -40 13 -30 24 -40
41 -40 14 0 23 -6 23 -15 0 -24 -47 3 -70 40 -24 38 -60 73 -60 57 0 -7 4 -12
8 -12 4 0 16 -14 26 -31 21 -36 103 -120 951 -971 352 -354 653 -653 669 -665
32 -25 84 -30 119 -12 12 6 382 372 822 813 549 549 814 821 843 866 191 289
241 624 142 945 -89 289 -321 543 -604 662 -149 63 -229 78 -426 77 -148 0
-187 -4 -255 -22 -196 -54 -331 -129 -483 -270 -46 -42 -87 -77 -92 -77 -4 0
-35 25 -67 56 -221 211 -486 321 -768 318 -60 -1 -135 -5 -165 -10z m163 -273
c20 -15 23 -59 5 -73 -7 -5 -42 -17 -78 -27 -150 -40 -297 -131 -399 -244 -55
-62 -151 -222 -151 -253 0 -27 -33 -48 -73 -46 -35 2 -37 4 -37 37 0 37 94
240 111 240 5 0 9 4 9 9 0 12 45 66 105 124 106 104 258 192 393 227 84 22 93
22 115 6z"/>
</g>
</svg>
